<?xml version="1.0" standalone="no"?>
<!DOCTYPE svg PUBLIC "-//W3C//DTD SVG 20010904//EN"
 "http://www.w3.org/TR/2001/REC-SVG-20010904/DTD/svg10.dtd">
<svg version="1.0" xmlns="http://www.w3.org/2000/svg"
 width="368.000000pt" height="362.000000pt" viewBox="0 0 368.000000 362.000000"
 preserveAspectRatio="xMidYMid meet">

<g transform="translate(0.000000,362.000000) scale(0.100000,-0.100000)"
fill="#000000" stroke="none">
<path d="M1477 2768 l-327 -190 49 -32 50 -31 -29 -44 c-28 -41 -50 -98 -50
-130 0 -8 -7 -22 -15 -31 -23 -26 -44 -124 -51 -246 l-7 -115 84 3 84 3 3 80
c4 101 -14 219 -41 267 -18 33 -19 42 -9 76 16 51 55 107 74 106 8 -1 127 -68
264 -149 137 -82 253 -148 259 -148 13 0 715 386 715 393 -1 5 -713 381 -721
379 -2 0 -151 -86 -332 -191z"/>
<path d="M1372 2153 l3 -238 52 -17 c125 -42 254 -61 413 -61 161 1 250 13
378 55 l62 21 0 234 c0 220 -1 235 -17 228 -10 -3 -112 -58 -226 -121 -114
-63 -215 -114 -223 -114 -8 0 -110 56 -225 125 -116 69 -212 125 -215 125 -2
0 -3 -107 -2 -237z"/>
<path d="M1386 1584 c-21 -21 -20 -47 2 -67 24 -22 55 -21 75 1 32 35 10 82
-38 82 -13 0 -31 -7 -39 -16z"/>
<path d="M382 1378 c3 -159 5 -176 26 -213 30 -53 78 -84 140 -92 78 -9 138 4
178 39 63 55 68 74 72 266 l4 172 -45 0 -46 0 -3 -171 -3 -171 -33 -29 c-46
-42 -118 -42 -164 0 l-33 29 -3 171 -3 171 -45 0 -46 0 4 -172z"/>
<path d="M1590 1315 l0 -235 143 0 c152 0 201 12 255 63 72 67 90 202 39 289
-55 93 -118 118 -303 118 l-134 0 0 -235z m297 142 c54 -28 78 -73 78 -144 0
-74 -20 -107 -85 -140 -35 -18 -61 -23 -122 -23 l-78 0 0 166 0 166 88 -4 c54
-3 99 -11 119 -21z"/>
<path d="M920 1260 l0 -180 40 0 40 0 0 105 c0 72 5 115 14 134 33 64 136 67
165 4 6 -13 11 -73 11 -133 l0 -110 40 0 40 0 0 130 c0 147 -9 178 -63 210
-44 27 -131 27 -174 0 -33 -20 -33 -20 -33 0 0 17 -7 20 -40 20 l-40 0 0 -180z"/>
<path d="M1380 1260 l0 -180 45 0 45 0 0 180 0 180 -45 0 -45 0 0 -180z"/>
<path d="M2231 1429 c-75 -30 -112 -88 -112 -174 0 -85 46 -149 127 -175 43
-15 120 -8 163 14 68 36 103 122 87 211 -8 43 -59 103 -103 121 -37 16 -126
17 -162 3z m156 -93 c51 -59 34 -149 -34 -181 -114 -54 -208 103 -113 188 29
26 38 29 79 24 32 -4 52 -12 68 -31z"/>
<path d="M2665 1425 c-70 -33 -105 -87 -105 -163 0 -66 18 -110 59 -145 78
-65 224 -58 274 14 16 22 15 23 -14 41 -30 18 -31 18 -55 -1 -84 -66 -195 -3
-181 103 12 86 111 126 174 72 27 -23 29 -23 55 -8 16 9 28 21 28 27 0 17 -41
52 -73 64 -39 15 -126 13 -162 -4z"/>
<path d="M3024 1430 c-33 -13 -74 -69 -74 -100 0 -16 11 -42 25 -59 21 -24 40
-33 103 -47 42 -9 84 -23 92 -31 13 -13 12 -16 -9 -34 -28 -23 -82 -25 -141
-4 -23 8 -44 15 -46 15 -2 0 -11 -14 -19 -30 l-16 -31 38 -16 c131 -54 283 -4
283 94 0 53 -33 78 -129 99 -90 19 -114 39 -84 69 13 14 29 16 77 13 34 -3 68
-8 77 -12 11 -5 19 1 27 19 7 14 12 30 12 34 0 26 -165 42 -216 21z"/>
<path d="M860 810 l0 -90 60 0 c33 0 60 4 60 10 0 6 -22 10 -50 10 l-50 0 0
80 c0 47 -4 80 -10 80 -6 0 -10 -37 -10 -90z"/>
<path d="M1380 865 c0 -19 5 -35 10 -35 6 0 10 16 10 35 0 19 -4 35 -10 35 -5
0 -10 -16 -10 -35z"/>
<path d="M1250 875 c0 -8 -7 -15 -15 -15 -19 0 -20 -16 -1 -23 10 -4 16 -24
18 -59 3 -50 5 -53 31 -56 15 -2 27 1 27 7 0 6 -9 11 -20 11 -17 0 -20 7 -20
50 0 43 3 50 20 50 11 0 20 5 20 10 0 6 -9 10 -20 10 -11 0 -20 7 -20 15 0 8
-4 15 -10 15 -5 0 -10 -7 -10 -15z"/>
<path d="M1072 850 c-47 -19 -48 -95 -2 -120 26 -14 72 -9 78 7 2 9 -5 11 -27
7 -30 -6 -61 8 -61 27 0 5 25 9 55 9 60 0 69 11 38 48 -22 25 -51 33 -81 22z
m56 -22 c21 -21 13 -28 -28 -28 -22 0 -40 4 -40 8 0 14 23 32 40 32 9 0 21 -5
28 -12z"/>
<path d="M1493 850 c-15 -6 -23 -18 -23 -34 0 -21 7 -27 40 -36 25 -7 40 -17
40 -27 0 -13 -8 -15 -40 -10 -41 5 -63 -6 -34 -17 43 -16 104 4 104 34 0 13
-42 40 -62 40 -9 0 -20 5 -24 11 -10 17 17 30 49 23 32 -7 37 11 5 20 -28 7
-27 7 -55 -4z"/>
<path d="M1759 842 c-31 -26 -19 -48 31 -62 53 -14 47 -35 -9 -34 -42 1 -54
-9 -25 -20 28 -11 71 -6 84 9 21 25 7 49 -33 59 -46 12 -48 40 -2 42 46 2 52
5 30 14 -32 14 -51 11 -76 -8z"/>
<path d="M1936 836 c-32 -31 -33 -66 -3 -94 23 -22 51 -27 81 -16 28 11 17 23
-17 17 -24 -4 -37 0 -51 16 l-19 21 56 0 c48 0 57 3 57 18 0 27 -21 50 -52 57
-21 5 -33 1 -52 -19z m65 -6 c31 -17 22 -30 -21 -30 -41 0 -49 7 -28 28 15 15
24 15 49 2z"/>
<path d="M2145 848 c-28 -16 -35 -28 -35 -65 0 -22 7 -37 22 -47 28 -20 72
-21 87 -3 14 18 2 30 -15 16 -17 -14 -55 -8 -67 12 -14 22 -1 67 23 74 10 3
29 1 40 -5 23 -12 40 -6 24 9 -16 17 -58 21 -79 9z"/>
<path d="M2300 813 c0 -60 21 -93 59 -93 15 0 32 5 39 12 9 9 12 9 12 0 0 -7
5 -12 10 -12 6 0 10 30 10 70 0 40 -4 70 -10 70 -5 0 -10 -19 -10 -43 0 -54
-18 -80 -51 -75 -21 3 -25 9 -29 57 -7 71 -30 82 -30 14z"/>
<path d="M2520 790 c0 -40 4 -70 10 -70 6 0 10 19 10 43 0 47 7 60 33 70 9 3
17 11 17 17 0 13 -6 13 -31 0 -13 -7 -19 -7 -19 0 0 5 -4 10 -10 10 -6 0 -10
-30 -10 -70z"/>
<path d="M2690 853 c-44 -16 -55 -91 -18 -117 29 -20 72 -20 89 0 11 14 9 15
-24 9 -24 -5 -42 -3 -52 5 -27 22 -16 30 40 30 63 0 71 15 30 55 -24 25 -36
28 -65 18z m55 -33 c18 -20 17 -20 -28 -20 -49 0 -60 11 -29 29 25 15 37 13
57 -9z"/>
</g>
</svg>
